<?xml version="1.0" encoding="utf-8"?>
<!-- Generator: Adobe Illustrator 29.2.1, SVG Export Plug-In . SVG Version: 9.03 Build 55982)  -->
<svg version="1.1" baseProfile="tiny" id="Layer_1" xmlns="http://www.w3.org/2000/svg" xmlns:xlink="http://www.w3.org/1999/xlink"
	 x="0px" y="0px" viewBox="0 0 297 562.3" overflow="visible" xml:space="preserve">
<g>
	<path fill="#1C1D1B" d="M1,399.1C1,294,6.1,195.3,15.4,121c4.6-36.1,9.8-64.4,15.7-84.2c7.4-25,14-30.2,18.2-30.2
		c4.7,0,13.9,6.8,23.7,52.2h2C84.8,13.4,94.1,6.6,98.7,6.6c4.7,0,13.9,6.8,23.7,52.2h2c9.8-45.4,19.1-52.2,23.8-52.2
		s13.9,6.8,23.7,52.2h2c9.7-45.4,19-52.2,23.7-52.2c4.7,0,13.9,6.8,23.7,52.2h2c9.8-45.4,19.1-52.2,23.7-52.2
		c4.2,0,10.8,5.2,18.2,30.2c5.9,19.8,11.1,48.1,15.6,84.2c9.3,74.3,14.4,173.1,14.4,278.1c0,56.9-1.5,111.8-4.4,163.2h1
		c2.8-49.7,4.4-105,4.4-163.2c0.1-217.3-22-393.5-49.2-393.5c-9,0-17.4,19.3-24.7,53c-7.3-33.7-15.7-53-24.7-53s-17.4,19.3-24.7,53
		c-7.3-33.7-15.7-53-24.7-53s-17.4,19.3-24.7,53c-7.3-33.7-15.7-53-24.7-53s-17.4,19.3-24.7,53c-7.4-33.7-15.8-53-24.8-53
		C22.1,5.6,0,181.8,0,399.1c0,58.2,1.6,113.5,4.4,163.2h1C2.5,510.9,1,456,1,399.1z"/>
</g>
</svg>
