<?xml version="1.0" encoding="utf-8"?>
<!-- Generator: Adobe Illustrator 29.2.1, SVG Export Plug-In . SVG Version: 9.03 Build 55982)  -->
<svg version="1.1" baseProfile="basic" id="Layer_1"
	 xmlns="http://www.w3.org/2000/svg" xmlns:xlink="http://www.w3.org/1999/xlink" x="0px" y="0px" viewBox="0 0 400 545"
	 xml:space="preserve">
<path fill="#1C1D1B" d="M379.1,119.6C366.6,45.8,349.9,5.1,332.1,5.1c-11.8,0-22.9,17.2-33,51.1C289,22.3,277.9,5.1,266,5.1
	c-11.8,0-22.9,17.2-33,51.1c-10.1-33.9-21.2-51.1-33-51.1c-11.8,0-23,17.2-33,51.1c-10.1-33.9-21.2-51.1-33-51.1
	c-11.8,0-23,17.2-33,51.1C90.9,22.3,79.8,5.1,67.9,5.1c-17.9,0-34.6,40.7-47.1,114.5C8.4,193.2,1.6,291,1.6,395.1
	c0,52.3,1.7,103.1,5,149.9h1c-3.3-46.9-5-97.6-5-149.9c0-104,6.8-201.8,19.3-275.3C34,47.5,50.8,6.1,67.9,6.1
	c11.4,0,22.6,18,32.5,52h1c9.9-34,21.2-52,32.6-52s22.6,18,32.5,52h1c9.9-34,21.2-52,32.5-52s22.6,18,32.5,52h1
	c9.9-34,21.2-52,32.5-52c11.4,0,22.6,18,32.5,52h1c9.9-34,21.2-52,32.5-52c17.1,0,33.9,41.4,46.1,113.7
	c12.4,73.5,19.3,171.3,19.3,275.3c0,52.3-1.7,103.1-5,149.9h1c3.3-46.9,5-97.6,5-149.9C398.4,291,391.6,193.2,379.1,119.6z"/>
</svg>
