<?xml version="1.0" encoding="utf-8"?>
<!-- Generator: Adobe Illustrator 29.2.1, SVG Export Plug-In . SVG Version: 9.03 Build 55982)  -->
<svg version="1.1" baseProfile="tiny" id="Layer_1" xmlns="http://www.w3.org/2000/svg" xmlns:xlink="http://www.w3.org/1999/xlink"
	 x="0px" y="0px" viewBox="0 0 419.5 560" overflow="visible" xml:space="preserve">
<g>
	<path fill="#1C1D1B" d="M409.7,536.2c0,8,0,15.9-0.1,23.8h-1.4c0.1-7.9,0.1-15.8,0.1-23.8c0-141.8-6.9-275.1-19.4-375.4
		c-6.1-48.7-13.1-86.9-21.1-113.7c-10-33.8-18.9-40.8-24.6-40.8c-6.2,0-18.8,9.2-32,70.5h-2.7c-13.2-61.3-25.7-70.5-32-70.5
		c-6.3,0-18.9,9.2-32,70.5h-2.7c-13.2-61.3-25.7-70.5-32-70.5c-6.3,0-18.9,9.2-32.1,70.5h-2.7c-13.2-61.3-25.7-70.5-32-70.5
		c-6.2,0-18.8,9.2-32,70.5h-2.7C95.2,15.5,82.7,6.3,76.4,6.3c-5.7,0-14.6,7-24.6,40.8c-8,26.7-15,64.9-21.2,113.7
		C18.1,261.1,11.2,394.3,11.2,536.2c0,8,0,15.9,0.1,23.8H9.9c0-7.9-0.1-15.8-0.1-23.8C9.8,242.8,39.7,5,76.4,5
		C88.5,5,99.9,31,109.9,76.5C119.7,31,131.1,5,143.2,5c12.1,0,23.5,26.1,33.3,71.5C186.4,31,197.8,5,209.9,5
		c12.2,0,23.5,26.1,33.3,71.5C253.1,31,264.4,5,276.6,5c12.2,0,23.5,26.1,33.3,71.5C319.8,31,331.1,5,343.3,5
		C380,5,409.8,242.8,409.7,536.2z"/>
</g>
</svg>
