<svg width="48" height="49" viewBox="0 0 48 49" fill="none" xmlns="http://www.w3.org/2000/svg">
<rect y="0.863525" width="48" height="48" rx="8.0064" fill="#0A0B0C"/>
<path d="M17.5264 29.6824L12.1947 16.2378H9.23438L16.1637 33.2691L13.3475 40.9217H16.0854L25.3892 16.2378H22.526L17.5264 29.6824Z" fill="#EEEE69"/>
<path d="M31.3966 7.96997C30.3719 7.96997 29.3633 8.95714 29.3633 9.95998C29.3633 11.1132 30.2182 11.95 31.3966 11.95C32.5749 11.95 33.4298 11.1132 33.4298 9.95998C33.4298 8.80672 32.3796 7.96997 31.3966 7.96997Z" fill="white"/>
<path d="M36.7177 7.96997C35.6887 7.96997 34.6758 8.95714 34.6758 9.95998C34.6758 11.1132 35.5344 11.95 36.7177 11.95C37.9011 11.95 38.7596 11.1132 38.7596 9.95998C38.7596 8.80672 37.7049 7.96997 36.7177 7.96997Z" fill="white"/>
<path d="M27.7218 26.3212C27.7218 28.0222 28.1353 29.3942 28.956 30.4342C29.7799 31.4742 30.8607 31.9942 32.192 31.9942C32.8154 31.9942 33.4137 31.8751 33.987 31.6371C34.5603 31.399 35.2494 30.951 36.0483 30.2932C36.0921 30.2588 36.1422 30.2149 36.1986 30.1585C36.6998 29.7231 37.0852 29.507 37.3514 29.507C37.53 29.507 37.6772 29.5727 37.7931 29.7074C37.909 29.8421 37.9685 30.0144 37.9685 30.2243C37.9685 30.4342 37.8871 30.6597 37.7273 30.8915C37.5644 31.1265 37.3295 31.3708 37.0194 31.6277C36.0953 32.3607 35.1931 32.9026 34.3159 33.2534C33.4357 33.6043 32.5147 33.7797 31.5467 33.7797C29.5324 33.7797 27.916 33.1438 26.6912 31.8689C25.4663 30.5939 24.8555 28.9055 24.8555 26.8036C24.8555 25.1246 25.1781 23.549 25.8234 22.083C26.4688 20.6139 27.4211 19.2951 28.6772 18.1267C29.4886 17.3592 30.4033 16.7734 31.4151 16.3662C32.427 15.959 33.4733 15.7554 34.5509 15.7554C35.8415 15.7554 36.8659 16.1062 37.6208 16.8079C38.3789 17.5096 38.758 18.4493 38.758 19.6271C38.758 21.4408 37.7461 22.9695 35.7287 24.2162C33.7082 25.4629 31.0424 26.1646 27.7249 26.3181L27.7218 26.3212ZM27.7563 24.8208C30.2905 24.708 32.2797 24.1911 33.7239 23.2671C35.1649 22.343 35.8854 21.1432 35.8854 19.6616C35.8854 18.938 35.7005 18.3553 35.3246 17.9168C34.9519 17.4782 34.4663 17.259 33.8648 17.259C32.3737 17.259 31.0486 17.9669 29.8864 19.3797C28.7242 20.7924 28.0131 22.6061 27.7594 24.8208H27.7563Z" fill="white"/>
</svg>
