<svg width="90" height="21" viewBox="0 0 90 21" fill="none" xmlns="http://www.w3.org/2000/svg">
<g clip-path="url(#clip0_414_1012)">
<path d="M5.08825 13.5007L1.81587 5.25H0L4.25312 15.7019L2.52484 20.3983H4.20482L9.91446 5.25H8.15734L5.08825 13.5007Z" fill="#EEEE69"/>
<path d="M17.7462 5.68742C17.0052 5.20192 16.1066 4.95898 15.0516 4.95898C13.9966 4.95898 13.15 5.18714 12.396 5.64381C11.6416 6.10048 11.0541 6.74746 10.6334 7.58583C10.2124 8.4242 10.002 9.41647 10.002 10.5619C10.002 11.7074 10.2157 12.6128 10.6432 13.4313C11.0703 14.2503 11.6679 14.8879 12.4349 15.3445C13.2019 15.8008 14.1001 16.0286 15.1295 16.0286C16.1589 16.0286 17.0636 15.7745 17.8825 15.2667C18.7014 14.7585 19.3148 14.0416 19.7225 13.1156L18.062 12.5429C17.7704 13.1383 17.3692 13.595 16.8578 13.9122C16.3467 14.2293 15.7444 14.3876 15.0516 14.3876C14.0222 14.3876 13.2289 14.0477 12.6724 13.3683C12.1909 12.7804 11.9187 11.9835 11.8539 10.9797H19.8977C19.9492 9.73654 19.7892 8.66533 19.4168 7.76532C19.0442 6.86532 18.4876 6.17257 17.7466 5.68706L17.7462 5.68742ZM12.6724 7.54257C13.2289 6.85631 14.0417 6.51318 15.11 6.51318C16.1066 6.51318 16.8578 6.83216 17.3627 7.46941C17.7614 7.97293 18.0061 8.68227 18.1023 9.59128H11.8895C11.9937 8.7403 12.2547 8.05764 12.6724 7.54257Z" fill="#EEEE69"/>
<path d="M29.3266 11.392C29.0999 11.0197 28.7196 10.6964 28.1858 10.421C27.6509 10.146 26.9217 9.89188 25.9951 9.65904C25.1729 9.45179 24.5469 9.26725 24.1165 9.10542C23.6861 8.94358 23.3909 8.77202 23.2327 8.59108C23.0745 8.40978 22.9948 8.1928 22.9948 7.94049C22.9948 7.48707 23.2071 7.12772 23.631 6.86244C24.0549 6.59752 24.6067 6.47749 25.2868 6.50344C26.0055 6.52255 26.5927 6.69411 27.0497 7.01778C27.506 7.34145 27.776 7.78479 27.8607 8.34815L29.6275 8.02772C29.5565 7.41282 29.328 6.87361 28.9427 6.41081C28.5578 5.94802 28.0513 5.5901 27.4235 5.3378C26.7956 5.08514 26.0834 4.95898 25.2868 4.95898C24.4903 4.95898 23.7798 5.08514 23.175 5.3378C22.5691 5.5901 22.0988 5.94802 21.7621 6.41081C21.4255 6.87361 21.2568 7.41282 21.2568 8.02772C21.2568 8.5262 21.3707 8.95007 21.5974 9.30005C21.8241 9.64931 22.2026 9.95712 22.7335 10.2224C23.2644 10.488 23.9929 10.7439 24.9185 10.9894C25.773 11.2161 26.4121 11.4104 26.836 11.5722C27.2598 11.7344 27.5406 11.9074 27.6761 12.092C27.8117 12.2765 27.8801 12.5176 27.8801 12.8154C27.8801 13.3265 27.6761 13.7316 27.2685 14.0293C26.8608 14.327 26.2975 14.4759 25.5788 14.4759C24.8211 14.4759 24.1868 14.309 23.6757 13.9756C23.1646 13.6422 22.8373 13.1909 22.6953 12.6211L20.9277 12.9026C21.109 13.8866 21.5992 14.6521 22.3994 15.1989C23.1988 15.7461 24.2228 16.0196 25.4728 16.0196C26.7228 16.0196 27.8055 15.7298 28.5509 15.1506C29.2952 14.571 29.6672 13.7766 29.6672 12.7667C29.6672 12.2228 29.5544 11.7647 29.3276 11.3927L29.3266 11.392Z" fill="#EEEE69"/>
<path d="M65.0178 6.85293C64.6707 6.28164 64.2173 5.83687 63.6637 5.52726C62.9864 5.14844 62.2025 4.95633 61.3317 4.95633C60.2875 4.95633 59.3857 5.20395 58.6497 5.69161C57.9165 6.17748 57.3456 6.85149 56.9531 7.69382C56.5635 8.53255 56.3652 9.49095 56.3652 10.542C56.3652 11.593 56.5635 12.5262 56.9531 13.358C57.3456 14.1932 57.9129 14.8596 58.6392 15.339C59.3677 15.8198 60.2522 16.0635 61.2671 16.0635C62.152 16.0635 62.9551 15.8605 63.6539 15.4605C64.244 15.1224 64.7255 14.6311 65.0895 13.9971L65.2168 15.8068H66.7245V0H65.0175V6.85293H65.0178ZM61.5234 14.4844C60.8083 14.4844 60.1873 14.3146 59.6751 13.9798C59.1629 13.6457 58.7675 13.1739 58.5001 12.5766C58.2308 11.9765 58.0942 11.2769 58.0942 10.4987C58.0942 9.72054 58.2308 9.02599 58.5001 8.43235C58.7675 7.84232 59.1629 7.37015 59.6758 7.02846C60.188 6.68713 60.8101 6.51412 61.523 6.51412C62.236 6.51412 62.897 6.68677 63.4016 7.0281C63.908 7.36979 64.3045 7.84268 64.5802 8.43343C64.8563 9.02743 64.9955 9.72271 64.9955 10.4987C64.9955 11.2747 64.8553 11.9747 64.5792 12.5755C64.3042 13.1731 63.9088 13.6457 63.4024 13.9802C62.8988 14.315 62.2663 14.484 61.5227 14.484L61.5234 14.4844Z" fill="#EEEE69"/>
<path d="M76.5056 5.67862C75.7004 5.1996 74.7712 4.95703 73.7443 4.95703C72.7175 4.95703 71.8052 5.19996 70.9931 5.67826C70.1804 6.15656 69.5337 6.81867 69.071 7.64443C68.6071 8.46946 68.3721 9.43723 68.3721 10.5211C68.3721 11.6049 68.6071 12.5337 69.071 13.3656C69.5337 14.1993 70.1804 14.8643 70.9931 15.3433C71.8048 15.8216 72.7304 16.0645 73.7443 16.0645C74.7582 16.0645 75.7008 15.8216 76.5056 15.3429C77.3087 14.8661 77.9517 14.2007 78.4174 13.3656C78.8802 12.5334 79.1152 11.576 79.1152 10.5211C79.1152 9.46606 78.8798 8.46982 78.4174 7.64407C77.9517 6.81723 77.308 6.15583 76.5056 5.67862ZM75.637 14.0007C75.0963 14.3362 74.4602 14.5067 73.7443 14.5067C73.0285 14.5067 72.3913 14.3366 71.8506 14.0007C71.3092 13.6655 70.8785 13.1922 70.5686 12.5939C70.2586 11.9938 70.1011 11.2895 70.1011 10.5001C70.1011 9.71079 70.2586 9.0321 70.5686 8.43954C70.8785 7.84771 71.31 7.3741 71.8517 7.03133C72.3931 6.68892 73.0303 6.51555 73.7443 6.51555C74.4584 6.51555 75.0956 6.68892 75.6363 7.03133C76.1776 7.3741 76.6091 7.84771 76.9194 8.43954C77.2305 9.03354 77.388 9.72701 77.388 10.5001C77.388 11.2733 77.2305 11.9927 76.9194 12.5939C76.6094 13.1922 76.1787 13.6655 75.6373 14.0007H75.637Z" fill="#EEEE69"/>
<path d="M82.5664 5.23438H80.8594V15.8073H82.5664V5.23438Z" fill="#EEEE69"/>
<path d="M81.7021 0.193359C81.3712 0.193359 81.0847 0.316628 80.8497 0.559921C80.6147 0.802853 80.4961 1.09228 80.4961 1.421C80.4961 1.74971 80.6158 2.03662 80.8508 2.2727C81.0858 2.50735 81.3723 2.62701 81.7025 2.62701C82.0326 2.62701 82.3206 2.50807 82.5625 2.27414C82.8061 2.03842 82.9294 1.75152 82.9294 1.421C82.9294 1.09048 82.8061 0.800691 82.5643 0.558479C82.3213 0.316267 82.0312 0.193359 81.7021 0.193359Z" fill="#EEEE69"/>
<path d="M87.9278 5.23362V1.96484H86.2417V5.23362H84.1699V6.70563H86.2417V15.8066H87.9278V6.70563H89.9999V5.23362H87.9278Z" fill="#EEEE69"/>
<path d="M51.0095 0.183594C50.3939 0.183594 49.7891 0.788762 49.7891 1.4051C49.7891 2.11264 50.302 2.62625 51.0095 2.62625C51.717 2.62625 52.2306 2.11228 52.2306 1.4051C52.2306 0.697933 51.5995 0.183594 51.0095 0.183594Z" fill="white"/>
<path d="M54.2673 0.183594C53.6517 0.183594 53.0469 0.788762 53.0469 1.4051C53.0469 2.11264 53.5598 2.62625 54.2673 2.62625C54.9748 2.62625 55.4885 2.11228 55.4885 1.4051C55.4885 0.697933 54.8573 0.183594 54.2673 0.183594Z" fill="white"/>
<path d="M37.7055 13.7943C37.1317 14.5249 36.5225 15.0818 35.877 15.4638C35.2318 15.8459 34.5816 16.0369 33.926 16.0369C33.1341 16.0369 32.4889 15.7659 31.9904 15.2227C31.4916 14.6799 31.2425 13.972 31.2425 13.0976C31.2425 12.5245 31.3654 11.556 31.6113 10.1943C31.8567 8.83219 31.9796 7.7718 31.9796 7.01416C31.9796 6.85737 31.9591 6.74636 31.9183 6.68148C31.8773 6.6166 31.7918 6.56723 31.6624 6.53298C31.6008 6.51929 31.5089 6.50199 31.3856 6.4818C31.0173 6.41368 30.8295 6.29726 30.8223 6.13326C30.8223 6.02405 30.8616 5.92854 30.9405 5.84636C31.0187 5.7649 31.1506 5.68596 31.3344 5.61135C31.7032 5.45457 32.0924 5.32445 32.5022 5.22209C32.9121 5.11972 33.1986 5.06854 33.3622 5.06854C33.5259 5.06854 33.6473 5.10927 33.7259 5.19145C33.8041 5.27363 33.8434 5.40663 33.8434 5.59081C33.8434 5.77499 33.789 6.17507 33.6798 6.8098C33.6524 6.95289 33.6318 7.06246 33.6182 7.13743C33.3449 8.69415 33.1507 9.89764 33.0346 10.7475C32.9185 11.5978 32.8605 12.2275 32.8605 12.6369C32.8605 13.3405 33.0018 13.8862 33.2855 14.2755C33.5691 14.6647 33.9667 14.859 34.4789 14.859C34.8952 14.859 35.3064 14.7311 35.7126 14.4748C36.1188 14.2189 36.4825 13.8588 36.8037 13.3946C37.2265 12.7869 37.5426 12.0855 37.7509 11.2896C37.9592 10.4942 38.1106 9.15406 38.2065 7.26971C38.213 7.1259 38.2202 6.92514 38.227 6.66526C38.2613 5.5526 38.7803 4.99609 39.7837 4.99609C39.8861 4.99609 39.9683 5.04007 40.0299 5.12873C40.0912 5.21776 40.1218 5.33742 40.1218 5.48736C40.1218 5.56954 40.093 5.77607 40.035 6.10695C39.9766 6.43855 39.934 6.6995 39.907 6.89089C39.6745 8.42706 39.5022 9.67128 39.3898 10.6239C39.277 11.5765 39.2204 12.2469 39.2204 12.6362C39.2204 13.3737 39.3656 13.9287 39.6558 14.3003C39.9459 14.6727 40.3813 14.8583 40.9616 14.8583C41.2896 14.8583 41.6018 14.8006 41.8991 14.6842C42.1961 14.5685 42.4639 14.394 42.7029 14.1623C43.3174 13.5885 43.7921 12.8921 44.1266 12.0729C44.4607 11.2536 44.6283 10.373 44.6283 9.43051C44.6283 9.0207 44.5941 8.6235 44.526 8.23748C44.4578 7.85181 44.3447 7.4301 44.1879 6.97235C44.1266 6.80223 44.0073 6.5611 43.8292 6.25076C43.6519 5.94007 43.5632 5.71985 43.5632 5.58973C43.5632 5.4196 43.6534 5.28949 43.8343 5.20082C44.0152 5.11215 44.2801 5.06746 44.628 5.06746C45.0994 5.06746 45.4617 5.31688 45.714 5.81536C45.9663 6.31384 46.0931 7.02714 46.0931 7.95562C46.0931 8.8841 45.9821 9.7668 45.7604 10.6441C45.5384 11.5218 45.2151 12.3392 44.7923 13.0968C44.2665 14.0527 43.6382 14.7815 42.9076 15.2836C42.177 15.7853 41.3819 16.0362 40.5215 16.0362C39.7225 16.0362 39.0957 15.8538 38.6419 15.4887C38.1877 15.1236 37.8752 14.5584 37.7051 13.7936L37.7055 13.7943Z" fill="white"/>
<path d="M48.7191 11.4398C48.7191 12.4843 48.9721 13.3259 49.4767 13.9643C49.982 14.603 50.6449 14.9219 51.4634 14.9219C51.8466 14.9219 52.2124 14.8484 52.5646 14.7021C52.9163 14.555 53.3384 14.2807 53.8297 13.8774C53.8571 13.8569 53.8873 13.8295 53.9216 13.7952C54.2287 13.5289 54.4651 13.3959 54.6291 13.3959C54.7383 13.3959 54.8284 13.4366 54.9002 13.5188C54.9712 13.601 55.0072 13.7066 55.0072 13.836C55.0072 13.9654 54.9578 14.1023 54.8594 14.2458C54.76 14.3896 54.6147 14.5399 54.424 14.6967C53.8571 15.1472 53.3042 15.4799 52.7646 15.6951C52.225 15.9099 51.6588 16.0177 51.0644 16.0177C49.8289 16.0177 48.8359 15.627 48.0847 14.8452C47.3336 14.0634 46.958 13.0271 46.958 11.7368C46.958 10.706 47.1552 9.73963 47.5516 8.83891C47.9481 7.93746 48.5313 7.12829 49.303 6.41138C49.8007 5.94066 50.3612 5.58022 50.9826 5.33116C51.6036 5.08174 52.2459 4.95703 52.9077 4.95703C53.6996 4.95703 54.3282 5.17221 54.792 5.60221C55.2566 6.03221 55.4891 6.60926 55.4891 7.33301C55.4891 8.44639 54.8688 9.38496 53.6304 10.1494C52.3908 10.9143 50.7541 11.3446 48.7191 11.4402V11.4398ZM48.74 10.5178C50.296 10.4497 51.5168 10.1321 52.4013 9.56518C53.2851 8.99858 53.727 8.26113 53.727 7.3532C53.727 6.9095 53.6131 6.55231 53.3838 6.28271C53.1553 6.01346 52.8565 5.8783 52.4878 5.8783C51.5726 5.8783 50.7591 6.31226 50.0458 7.17875C49.3318 8.04595 48.8964 9.15933 48.74 10.5178Z" fill="white"/>
</g>
<defs>
<clipPath id="clip0_414_1012">
<rect width="90" height="20.3991" fill="white"/>
</clipPath>
</defs>
</svg>
