<?xml version="1.0" encoding="UTF-8"?>
<svg id="Layer_2" data-name="Layer 2" xmlns="http://www.w3.org/2000/svg" viewBox="0 0 803.54 182.13">
  <defs>
    <style>
      .cls-1 {
        fill: #ffee69;
      }

      .cls-2 {
        fill: #fff;
      }
    </style>
  </defs>
  <g id="Layer_1-2" data-name="Layer 1">
    <polygon class="cls-1" points="45.43 120.55 16.21 46.88 0 46.88 37.97 140.2 22.54 182.13 37.54 182.13 88.52 46.88 72.83 46.88 45.43 120.55"/>
    <path class="cls-1" d="M158.44,50.78c-6.62-4.33-14.64-6.5-24.06-6.5s-16.98,2.04-23.71,6.11c-6.74,4.08-11.98,9.86-15.74,17.34-3.76,7.48-5.64,16.34-5.64,26.57s1.91,18.31,5.72,25.62c3.81,7.31,9.15,13,16,17.08,6.85,4.07,14.87,6.11,24.06,6.11s17.27-2.27,24.58-6.8c7.31-4.54,12.79-10.94,16.43-19.21l-14.83-5.11c-2.6,5.32-6.18,9.39-10.75,12.23-4.56,2.83-9.94,4.25-16.12,4.25-9.19,0-16.27-3.04-21.24-9.1-4.3-5.25-6.73-12.36-7.31-21.33h71.82c.46-11.1-.97-20.66-4.29-28.7-3.33-8.03-8.3-14.22-14.91-18.55ZM113.14,67.34c4.97-6.13,12.23-9.19,21.76-9.19,8.9,0,15.6,2.85,20.11,8.54,3.56,4.49,5.75,10.83,6.6,18.94h-55.47c.93-7.6,3.26-13.69,6.99-18.29Z"/>
    <path class="cls-1" d="M261.84,101.71c-2.02-3.32-5.42-6.21-10.19-8.67-4.78-2.46-11.29-4.72-19.56-6.8-7.34-1.85-12.93-3.5-16.77-4.94-3.84-1.44-6.48-2.98-7.89-4.59-1.41-1.62-2.13-3.56-2.13-5.81,0-4.05,1.9-7.26,5.68-9.63,3.78-2.37,8.71-3.44,14.78-3.2,6.42.17,11.66,1.7,15.74,4.59,4.07,2.89,6.49,6.85,7.24,11.88l15.77-2.86c-.64-5.49-2.68-10.3-6.11-14.44-3.44-4.13-7.96-7.33-13.56-9.58-5.6-2.26-11.96-3.38-19.08-3.38s-13.45,1.13-18.86,3.38c-5.41,2.25-9.61,5.45-12.62,9.58-3.01,4.13-4.51,8.95-4.51,14.44,0,4.45,1.02,8.23,3.04,11.36,2.02,3.12,5.4,5.87,10.14,8.23,4.74,2.37,11.24,4.66,19.51,6.85,7.63,2.02,13.34,3.76,17.12,5.2,3.78,1.45,6.29,2.99,7.5,4.64,1.21,1.65,1.82,3.8,1.82,6.46,0,4.56-1.82,8.18-5.46,10.84-3.64,2.66-8.67,3.99-15.09,3.99-6.76,0-12.43-1.49-16.99-4.47-4.56-2.98-7.48-7.01-8.75-12.09l-15.78,2.51c1.62,8.78,5.99,15.62,13.14,20.5,7.14,4.89,16.28,7.33,27.44,7.33s20.83-2.59,27.48-7.76c6.65-5.17,9.97-12.27,9.97-21.29,0-4.86-1.01-8.95-3.03-12.27Z"/>
    <path class="cls-1" d="M580.5,61.18c-3.1-5.1-7.15-9.07-12.09-11.84-6.05-3.38-13.05-5.1-20.82-5.1-9.32,0-17.37,2.21-23.94,6.57-6.54,4.34-11.64,10.35-15.15,17.88-3.48,7.49-5.25,16.04-5.25,25.43s1.77,17.72,5.25,25.14c3.51,7.45,8.57,13.41,15.05,17.69,6.5,4.29,14.4,6.47,23.46,6.47,7.9,0,15.07-1.81,21.31-5.38,5.27-3.02,9.57-7.4,12.82-13.06l1.13,16.16h13.46V0h-15.24v61.18ZM549.3,129.32c-6.38,0-11.93-1.52-16.5-4.5-4.57-2.98-8.1-7.2-10.49-12.53-2.4-5.36-3.62-11.6-3.62-18.55s1.22-13.15,3.62-18.45c2.39-5.27,5.92-9.48,10.5-12.53,4.57-3.05,10.13-4.59,16.49-4.59s12.27,1.54,16.77,4.59c4.52,3.05,8.06,7.27,10.52,12.55,2.46,5.3,3.71,11.51,3.71,18.44s-1.25,13.18-3.72,18.54c-2.46,5.33-5.99,9.55-10.51,12.54-4.5,2.99-10.14,4.5-16.78,4.5Z"/>
    <path class="cls-1" d="M683.06,50.69c-7.19-4.28-15.49-6.44-24.66-6.44s-17.31,2.17-24.56,6.44c-7.26,4.27-13.03,10.18-17.16,17.56-4.14,7.37-6.24,16.01-6.24,25.68s2.1,17.97,6.24,25.4c4.13,7.44,9.91,13.38,17.16,17.66,7.25,4.27,15.51,6.44,24.56,6.44s17.47-2.17,24.66-6.44c7.17-4.26,12.91-10.2,17.07-17.65,4.13-7.43,6.23-15.98,6.23-25.4s-2.1-18.31-6.23-25.69c-4.16-7.38-9.91-13.29-17.07-17.55ZM675.31,124.99c-4.83,3-10.51,4.52-16.9,4.52s-12.08-1.52-16.91-4.52c-4.83-2.99-8.68-7.22-11.45-12.56-2.77-5.36-4.17-11.65-4.17-18.69s1.41-13.11,4.17-18.4c2.77-5.28,6.62-9.51,11.46-12.57,4.83-3.06,10.52-4.61,16.9-4.61s12.07,1.55,16.89,4.61c4.83,3.06,8.69,7.29,11.46,12.57,2.78,5.3,4.18,11.49,4.18,18.4s-1.41,13.33-4.18,18.69c-2.77,5.34-6.61,9.57-11.45,12.56Z"/>
    <rect class="cls-1" x="721.93" y="46.73" width="15.24" height="94.4"/>
    <path class="cls-1" d="M729.46,1.72c-2.95,0-5.51,1.1-7.61,3.27-2.1,2.17-3.16,4.75-3.16,7.69s1.07,5.49,3.17,7.6c2.1,2.1,4.66,3.16,7.6,3.16s5.52-1.06,7.68-3.15c2.18-2.1,3.28-4.67,3.28-7.62s-1.1-5.54-3.26-7.7c-2.17-2.16-4.76-3.26-7.7-3.26Z"/>
    <polygon class="cls-1" points="785.04 46.73 785.04 17.55 769.99 17.55 769.99 46.73 751.49 46.73 751.49 59.88 769.99 59.88 769.99 141.13 785.04 141.13 785.04 59.88 803.54 59.88 803.54 46.73 785.04 46.73"/>
    <path class="cls-2" d="M455.43,1.63c-5.5,0-10.89,5.4-10.89,10.91,0,6.32,4.58,10.9,10.89,10.9s10.9-4.59,10.9-10.9-5.64-10.91-10.9-10.91Z"/>
    <path class="cls-2" d="M484.51,1.63c-5.5,0-10.89,5.4-10.89,10.91,0,6.32,4.58,10.9,10.89,10.9s10.9-4.59,10.9-10.9-5.64-10.91-10.9-10.91Z"/>
    <path class="cls-2" d="M336.64,123.17c-5.12,6.52-10.56,11.49-16.32,14.91-5.76,3.41-11.57,5.12-17.42,5.12-7.07,0-12.83-2.42-17.28-7.27-4.45-4.85-6.68-11.17-6.68-18.97,0-5.12,1.1-13.76,3.29-25.92,2.19-12.16,3.29-21.63,3.29-28.39,0-1.4-.18-2.39-.55-2.97-.37-.58-1.13-1.02-2.29-1.33-.55-.12-1.37-.28-2.47-.46-3.29-.61-4.97-1.65-5.03-3.11,0-.97.35-1.83,1.05-2.56.7-.73,1.88-1.43,3.52-2.1,3.29-1.4,6.77-2.56,10.43-3.48,3.66-.91,6.22-1.37,7.68-1.37s2.54.36,3.25,1.1c.7.73,1.05,1.92,1.05,3.56s-.49,5.22-1.46,10.88c-.25,1.28-.43,2.26-.55,2.93-2.44,13.9-4.17,24.64-5.21,32.23-1.04,7.59-1.55,13.21-1.55,16.87,0,6.28,1.26,11.15,3.79,14.63,2.53,3.48,6.08,5.21,10.66,5.21,3.72,0,7.39-1.14,11.02-3.43,3.63-2.29,6.87-5.5,9.74-9.64,3.78-5.43,6.6-11.69,8.46-18.79,1.86-7.1,3.21-19.07,4.07-35.89.06-1.28.12-3.08.18-5.4.3-9.94,4.94-14.9,13.9-14.9.91,0,1.65.39,2.2,1.19.55.8.82,1.86.82,3.2,0,.73-.26,2.58-.77,5.53-.52,2.96-.9,5.29-1.14,7-2.07,13.72-3.62,24.82-4.62,33.33-1.01,8.5-1.51,14.49-1.51,17.97,0,6.58,1.3,11.54,3.89,14.86,2.59,3.32,6.48,4.98,11.66,4.98,2.93,0,5.72-.52,8.37-1.55,2.65-1.03,5.04-2.59,7.18-4.66,5.49-5.12,9.72-11.34,12.71-18.66,2.98-7.32,4.48-15.18,4.48-23.59,0-3.66-.3-7.21-.91-10.65-.61-3.44-1.62-7.21-3.02-11.29-.55-1.52-1.61-3.67-3.2-6.44-1.58-2.77-2.37-4.74-2.37-5.9,0-1.52.8-2.68,2.42-3.47,1.62-.79,3.98-1.19,7.09-1.19,4.21,0,7.44,2.23,9.69,6.68,2.25,4.45,3.39,10.82,3.39,19.11s-.99,16.17-2.97,24c-1.98,7.84-4.87,15.13-8.64,21.9-4.69,8.53-10.3,15.04-16.83,19.52-6.52,4.48-13.62,6.72-21.3,6.72-7.13,0-12.73-1.63-16.78-4.89-4.06-3.26-6.85-8.31-8.37-15.13Z"/>
    <path class="cls-2" d="M434.97,102.13c0,9.33,2.26,16.84,6.76,22.54,4.51,5.7,10.43,8.55,17.74,8.55,3.42,0,6.69-.66,9.83-1.96,3.14-1.31,6.91-3.76,11.29-7.36.25-.18.52-.43.82-.73,2.74-2.38,4.85-3.56,6.32-3.56.97,0,1.78.36,2.42,1.1.64.73.96,1.68.96,2.83s-.44,2.38-1.32,3.66c-.89,1.28-2.18,2.62-3.89,4.03-5.06,4.02-10,6.99-14.82,8.92-4.82,1.92-9.87,2.88-15.18,2.88-11.03,0-19.9-3.49-26.6-10.47-6.71-6.98-10.06-16.23-10.06-27.75,0-9.2,1.76-17.83,5.3-25.87,3.54-8.05,8.75-15.27,15.64-21.67,4.45-4.2,9.45-7.42,14.99-9.64,5.55-2.23,11.28-3.34,17.19-3.34,7.07,0,12.68,1.92,16.82,5.76,4.15,3.84,6.22,8.99,6.22,15.45,0,9.94-5.54,18.32-16.59,25.15-11.07,6.83-25.68,10.67-43.85,11.52ZM435.16,93.9c13.89-.61,24.79-3.44,32.69-8.5,7.89-5.06,11.84-11.64,11.84-19.75,0-3.96-1.02-7.15-3.06-9.56-2.04-2.4-4.71-3.61-8-3.61-8.17,0-15.43,3.87-21.8,11.61-6.38,7.74-10.26,17.68-11.66,29.81Z"/>
  </g>
</svg>