<?xml version="1.0" encoding="UTF-8"?>
<svg id="Layer_1" xmlns="http://www.w3.org/2000/svg" version="1.1" viewBox="0 0 335 558">
  <!-- Generator: Adobe Illustrator 29.2.1, SVG Export Plug-In . SVG Version: 2.1.0 Build 116)  -->
  <defs>
    <style>
      .st0 {
        fill: none;
        fill-rule: evenodd;
        stroke: #1c1d1b;
        stroke-miterlimit: 10;
      }
    </style>
  </defs>
  <path class="st0" d="M23.9,558c-2.4-46.6-3.8-97.8-3.8-151.5C20.2,189.2,42.2,13,69.5,13s17,18.4,24.2,50.6c.2.8.3,1.6.5,2.4.2-.8.3-1.6.5-2.3,7.2-32.2,15.4-50.6,24.2-50.6s17.1,18.4,24.2,50.6c.2.8.3,1.5.5,2.3.2-.8.3-1.6.5-2.4,7.2-32.2,15.4-50.6,24.2-50.6s17,18.4,24.2,50.6c.2.8.3,1.6.5,2.4.2-.8.3-1.6.5-2.3,7.2-32.2,15.4-50.6,24.2-50.6s17,18.4,24.2,50.6c.2.8.3,1.6.5,2.4.2-.8.3-1.6.5-2.4,7.2-32.2,15.4-50.6,24.2-50.6,27.2,0,49.3,176.2,49.3,393.5s-1.4,104.9-3.8,151.5"/>
</svg>