<svg width="91" height="23" viewBox="0 0 91 23" fill="none" xmlns="http://www.w3.org/2000/svg">
<path d="M65.6156 0.9H65.5156V1V7.77465C64.738 6.48115 63.4256 5.83597 61.8291 5.83597C60.2696 5.83597 59.0338 6.43797 58.1895 7.43736C57.3467 8.43487 56.9 9.82074 56.9 11.3815C56.9 12.9422 57.3467 14.3123 58.1817 15.294C59.0182 16.2774 60.238 16.8633 61.7654 16.8633C63.3995 16.8633 64.8001 16.1849 65.5847 14.7715L65.708 16.5145L65.7145 16.6075H65.8077H67.0836H67.1836V16.5075V1V0.9H67.0836H65.6156ZM81.3754 16.5075V16.6075H81.4754H82.9434H83.0434V16.5075V6.21128V6.11128H82.9434H81.4754H81.3754V6.21128V16.5075ZM88.3663 16.6075H88.4663V16.5075V7.54501H90.43H90.53V7.44501V6.21128V6.11128H90.43H88.4663V2.95693V2.85693H88.3663H86.9199H86.8199V2.95693V6.11128H84.8561H84.7561V6.21128V7.44501V7.54501H84.8561H86.8199V16.5075V16.6075H86.9199H88.3663ZM65.494 11.3383C65.494 12.5118 65.1692 13.5081 64.5763 14.2093C63.9851 14.9085 63.1204 15.3227 62.0202 15.3227C60.9311 15.3227 60.077 14.904 59.4934 14.2022C58.9081 13.4984 58.5885 12.5017 58.5885 11.3383C58.5885 10.1745 58.9031 9.17795 59.4858 8.47428C60.0667 7.77282 60.9206 7.35394 62.0202 7.35394C63.1204 7.35394 63.9851 7.76812 64.5763 8.46737C65.1692 9.16852 65.494 10.1648 65.494 11.3383ZM74.3524 5.8031C71.2739 5.8031 69.0196 8.12748 69.0196 11.328C69.0196 14.5073 71.2742 16.8314 74.3524 16.8314C77.4304 16.8314 79.6853 14.5291 79.6853 11.328C79.6853 8.12748 77.431 5.8031 74.3524 5.8031ZM74.3524 15.3124C73.2727 15.3124 72.364 14.9031 71.7244 14.2016C71.0841 13.4994 70.7081 12.4981 70.7081 11.3065C70.7081 8.971 72.2246 7.3221 74.3524 7.3221C75.4215 7.3221 76.3305 7.72623 76.9728 8.42258C77.6156 9.11948 77.9968 10.1152 77.9968 11.3065C77.9968 12.4981 77.6207 13.4994 76.9805 14.2016C76.3409 14.9031 75.4321 15.3124 74.3524 15.3124ZM81.0138 2.29743C81.0138 2.94846 81.5476 3.48221 82.1986 3.48221C82.8471 3.48221 83.405 2.951 83.405 2.29743C83.405 1.64639 82.8497 1.09107 82.1986 1.09107C81.5451 1.09107 81.0138 1.64896 81.0138 2.29743Z" fill="#EEEE69" stroke="#EEEE69" stroke-width="0.2"/>
<path d="M51.9 2.29776C51.9 2.9488 52.4337 3.48255 53.0848 3.48255C53.7333 3.48255 54.2911 2.95133 54.2911 2.29776C54.2911 1.64672 53.7358 1.09141 53.0848 1.09141C52.4312 1.09141 51.9 1.64929 51.9 2.29776Z" fill="white" stroke="white" stroke-width="0.2"/>
<path d="M22.4844 13.5134H22.3844V13.6134C22.3844 14.5974 22.7515 15.4136 23.4248 15.9821C24.0962 16.549 25.0625 16.8619 26.2493 16.8619C27.4356 16.8619 28.4375 16.5547 29.1452 16.0033C29.8448 15.4583 30.2512 14.6785 30.2629 13.7402L30.2642 13.739V13.6976C30.2642 12.9333 30.056 12.327 29.6092 11.8552C29.1653 11.3863 28.4957 11.0609 27.5937 10.8353C27.5937 10.8352 27.5936 10.8352 27.5936 10.8352L25.828 10.3884L25.8272 10.3882C25.2732 10.2525 24.8717 10.0512 24.6099 9.79666C24.3507 9.54472 24.2229 9.2357 24.2229 8.86847C24.2229 8.34536 24.4276 7.94517 24.7917 7.67268C25.1595 7.39739 25.6995 7.24576 26.3777 7.24576C27.053 7.24576 27.5809 7.41708 27.9434 7.72205C28.3042 8.02553 28.5124 8.47056 28.5326 9.04253L28.536 9.13899H28.6325H30.0573H30.1607L30.1573 9.03567C30.1246 8.0545 29.7583 7.25044 29.1096 6.69279C28.4622 6.13628 27.5435 5.83359 26.4198 5.83359C25.2972 5.83359 24.3429 6.12487 23.6669 6.65515C22.9887 7.18721 22.597 7.95532 22.597 8.89004C22.597 9.61478 22.8229 10.2254 23.2838 10.7114C23.7426 11.1951 24.427 11.5478 25.3312 11.774C25.3312 11.774 25.3312 11.774 25.3313 11.774L27.0969 12.2208L27.0976 12.221C27.697 12.3681 28.0851 12.5592 28.3238 12.8054C28.5588 13.0478 28.6599 13.355 28.6599 13.7623C28.6599 14.2829 28.4414 14.699 28.0346 14.9885C27.6239 15.2809 27.014 15.4487 26.2287 15.4487C25.5217 15.4487 24.9615 15.2669 24.5801 14.9509C24.2008 14.6367 23.9886 14.1821 23.9886 13.6134V13.5134H23.8886H22.4844Z" fill="#EEEE69" stroke="#EEEE69" stroke-width="0.2"/>
<path d="M21.1056 13.447L21.1373 13.3223H21.0087H19.6044H19.5287L19.5082 13.3952C19.3224 14.0552 18.9685 14.5552 18.4614 14.8915C17.9529 15.2288 17.2824 15.4066 16.4559 15.4066C15.3725 15.4066 14.5182 15.0533 13.9207 14.402C13.3386 13.7674 12.9905 12.8391 12.9234 11.6496H21.0087H21.1087V11.5496V10.8264C21.1087 9.34737 20.6279 8.09815 19.786 7.21801C18.9436 6.33749 17.7465 5.83359 16.3285 5.83359C14.834 5.83359 13.5728 6.39746 12.686 7.37426C11.7999 8.35027 11.2936 9.73178 11.2936 11.3585C11.2936 12.9856 11.8056 14.3622 12.7083 15.3329C13.6116 16.3043 14.8994 16.8619 16.4353 16.8619C17.664 16.8619 18.6913 16.5654 19.4833 15.9864C20.276 15.4069 20.8244 14.5506 21.1056 13.447ZM12.9761 10.3864C13.1147 9.44568 13.4827 8.6837 14.0342 8.1519C14.6067 7.59989 15.384 7.2889 16.3285 7.2889C17.2727 7.2889 18.0487 7.61015 18.5887 8.16543C19.1102 8.70172 19.4188 9.4639 19.4396 10.3864H12.9761Z" fill="#EEEE69" stroke="#EEEE69" stroke-width="0.2"/>
<path d="M46.2776 11.5393C46.0609 12.4063 45.7424 13.2148 45.3233 13.9667C44.8015 14.9149 44.179 15.6391 43.4547 16.1404C42.7305 16.6345 41.9416 16.8821 41.0879 16.8821C40.2959 16.8821 39.6724 16.7023 39.2194 16.3438C38.7967 15.9979 38.4981 15.4766 38.3236 14.7797C38.2976 14.8122 38.2715 14.8444 38.2453 14.8762M46.2776 11.5393L46.3745 11.5641C46.3746 11.564 46.3746 11.5639 46.3746 11.5638M46.2776 11.5393L46.3747 11.5636C46.3746 11.5637 46.3746 11.5637 46.3746 11.5638M46.2776 11.5393C46.5006 10.6662 46.6125 9.78889 46.6125 8.86847C46.6125 7.94804 46.4872 7.24027 46.2365 6.74615C45.9859 6.25204 45.6274 6.00447 45.16 6.00447C44.8148 6.00447 44.5508 6.04865 44.368 6.13699C44.1923 6.22533 44.104 6.35374 44.104 6.52324C44.104 6.65267 44.1923 6.87251 44.368 7.18377C44.5436 7.48886 44.6628 7.72513 44.7234 7.89463C44.8785 8.34868 44.9905 8.7678 45.0583 9.15405L32.1531 11.0737M46.3746 11.5638C46.1558 12.4389 45.8342 13.2555 45.4108 14.0152M46.3746 11.5638C46.5995 10.6827 46.7125 9.79718 46.7125 8.86847C46.7125 7.94148 46.5867 7.2154 46.3257 6.70091C46.1949 6.44296 46.0327 6.24305 45.8363 6.10769C45.639 5.97169 45.4124 5.90447 45.16 5.90447C44.8089 5.90447 44.5272 5.94898 44.3245 6.04695L44.3245 6.04694L44.323 6.04765C44.224 6.09744 44.1434 6.16167 44.0876 6.24319C44.0312 6.32556 44.004 6.42009 44.004 6.52324C44.004 6.60727 44.0318 6.70885 44.0773 6.82248C44.1236 6.93817 44.1919 7.07519 44.2809 7.23292L44.2813 7.23366C44.4562 7.53747 44.5715 7.76706 44.629 7.92762C44.7827 8.37767 44.8931 8.79146 44.9598 9.17133L44.9598 9.17165C45.0266 9.54458 45.06 9.93212 45.06 10.3323C45.06 11.255 44.8968 12.1153 44.5702 12.915C44.2436 13.7149 43.7811 14.393 43.1831 14.9517L43.1831 14.9517L43.1817 14.953C42.9537 15.1742 42.6979 15.3392 42.413 15.4493L42.4124 15.4495C42.1327 15.5598 41.837 15.6151 41.5245 15.6151C40.9724 15.6151 40.5713 15.4409 40.3039 15.1051C40.0387 14.757 39.8987 14.2311 39.8987 13.5106C39.8987 13.1308 39.9525 12.4725 40.0603 11.5316C40.1752 10.5848 40.3476 9.3502 40.5777 7.82738L40.5777 7.82697C40.6053 7.63882 40.6452 7.3819 40.6995 7.05823C40.7593 6.73068 40.7924 6.51386 40.7924 6.42154C40.7924 6.25961 40.759 6.11963 40.6835 6.00954C40.6054 5.89574 40.4943 5.83359 40.3576 5.83359C39.8414 5.83359 39.4336 5.97739 39.1519 6.27965C38.8718 6.58012 38.731 7.02157 38.7136 7.58646L38.7136 7.58673C38.7064 7.84379 38.7003 8.04293 38.6932 8.18336L38.6932 8.18337C38.5987 10.0515 38.4459 11.3727 38.2392 12.1537L38.2391 12.1543C38.0384 12.9298 37.7317 13.6121 37.3191 14.2044L37.3189 14.2047C37.0068 14.6557 36.6535 15.0051 36.2608 15.2536C35.876 15.4956 35.4875 15.6141 35.0959 15.6141C34.6173 15.6141 34.2527 15.4346 33.9883 15.0759C33.7278 14.7129 33.5914 14.1952 33.5914 13.5096C33.5914 13.111 33.6481 12.4931 33.763 11.6546L33.763 11.6545C33.8778 10.81 34.0707 9.61688 34.3418 8.07342C34.3544 8.00361 34.3735 7.90236 34.3982 7.7708L34.4022 7.74981L34.4022 7.74981L34.4025 7.7482C34.5099 7.12232 34.5662 6.71644 34.5662 6.52324C34.5662 6.3298 34.5235 6.166 34.4163 6.05765C34.3159 5.94874 34.1646 5.90447 33.9886 5.90447C33.8124 5.90447 33.5179 5.95795 33.1117 6.05949L33.1116 6.05951C32.7014 6.16231 32.3105 6.29223 31.9398 6.45042C31.7525 6.52625 31.6059 6.61031 31.511 6.70523L31.5109 6.70518L31.5083 6.70808C31.4162 6.80765 31.3697 6.9274 31.3697 7.0605H31.3696L31.3698 7.06492C31.3754 7.18998 31.4516 7.28528 31.5621 7.35358C31.6706 7.42062 31.8226 7.46917 32.0103 7.50398L32.0103 7.50401L32.0128 7.5044C32.1323 7.52348 32.221 7.54043 32.2793 7.5532C32.3973 7.58464 32.4502 7.62539 32.471 7.65985L32.471 7.65989L32.4731 7.66317C32.4957 7.69726 32.5172 7.77867 32.5172 7.93264C32.5172 8.67563 32.3962 9.72164 32.1531 11.0737M45.4108 14.0152C45.4108 14.0151 45.4109 14.015 45.4109 14.015L45.3234 13.9668L45.4107 14.0154C45.4107 14.0154 45.4108 14.0153 45.4108 14.0152ZM45.4108 14.0152C44.8832 14.9737 44.2511 15.7108 43.5117 16.2226L43.5111 16.223C42.7708 16.7281 41.9623 16.9821 41.0879 16.9821C40.2816 16.9821 39.6335 16.7991 39.1573 16.4222L39.156 16.4212C38.7273 16.0704 38.4259 15.5521 38.2453 14.8762M38.2453 14.8762C37.7073 15.5305 37.1349 16.038 36.5275 16.397M38.2453 14.8762C38.2347 14.8365 38.2245 14.7963 38.2147 14.7555C37.669 15.4304 37.0896 15.9486 36.4766 16.3109C35.8397 16.69 35.1966 16.88 34.5474 16.88C33.7615 16.88 33.1226 16.613 32.6274 16.0778C32.1333 15.5364 31.8858 14.8317 31.8858 13.9657C31.8858 13.3966 32.008 12.4392 32.2515 11.0915L36.5275 16.397M36.5275 16.397C35.8775 16.7838 35.217 16.98 34.5474 16.98C33.7361 16.98 33.0697 16.703 32.554 16.1457L32.5536 16.1452C32.0397 15.5821 31.7858 14.8519 31.7858 13.9657C31.7858 13.3867 31.9096 12.4214 32.1531 11.0737M36.5275 16.397L32.1531 11.0737M42.4491 15.5426C42.747 15.4275 43.014 15.2549 43.2513 15.0248L40.225 15.1666C40.5158 15.5323 40.9493 15.7151 41.5245 15.7151C41.8491 15.7151 42.1573 15.6576 42.4491 15.5426ZM40.601 7.04098C40.5466 7.36559 40.5065 7.62343 40.4788 7.81245L40.601 7.04098Z" fill="white" stroke="white" stroke-width="0.2"/>
<path d="M54.4169 14.5797L54.4166 14.5794L54.4106 14.5856C54.381 14.6162 54.3534 14.64 54.332 14.6556L54.3319 14.6555L54.3276 14.659C53.8444 15.0555 53.4329 15.3221 53.0931 15.4669C52.7592 15.6035 52.4107 15.6718 52.0447 15.6718C51.2624 15.6718 50.635 15.3712 50.1529 14.7658C49.6851 14.1701 49.4392 13.39 49.4243 12.4143C51.4071 12.3104 53.0163 11.882 54.2402 11.1243C55.4919 10.3544 56.1367 9.39477 56.1367 8.24715C56.1367 7.5058 55.8981 6.90544 55.4134 6.4574C54.9313 6.0087 54.2821 5.79062 53.4767 5.79062C52.8074 5.79062 52.1589 5.91847 51.5299 6.17378C50.9027 6.42198 50.3364 6.78425 49.8335 7.25994C49.059 7.97937 48.4725 8.7926 48.0743 9.6995C47.675 10.6065 47.4762 11.5787 47.4762 12.614C47.4762 13.9146 47.8558 14.9694 48.6216 15.7701L48.6218 15.7703C49.3882 16.5653 50.4009 16.9587 51.6503 16.9587C52.251 16.9587 52.8243 16.8527 53.3716 16.6374L53.3726 16.637C53.9174 16.4159 54.4742 16.0786 55.0428 15.6272L55.0428 15.6272L55.0441 15.6262C55.2371 15.4678 55.3876 15.3111 55.4884 15.1586C55.5971 15.0056 55.659 14.8505 55.659 14.6952C55.659 14.5472 55.616 14.4175 55.5234 14.3151C55.4359 14.2113 55.3194 14.1597 55.183 14.1597C55.0769 14.1597 54.96 14.2019 54.8368 14.2713C54.712 14.3417 54.5718 14.4452 54.4169 14.5797ZM52.9152 10.3768C52.0844 10.9104 50.9341 11.2214 49.4577 11.2993C49.6221 10.0209 50.0418 8.97482 50.7105 8.15763C51.4071 7.31517 52.1902 6.90488 53.0607 6.90488C53.398 6.90488 53.6641 7.02823 53.8682 7.27447L53.8682 7.27449L53.8698 7.27636C54.0802 7.51771 54.1893 7.84454 54.1893 8.26667C54.1893 9.1265 53.7714 9.82965 52.9154 10.3766L52.9152 10.3768Z" fill="white" stroke="white" stroke-width="0.2"/>
<path d="M11.0242 6.24579L11.0744 6.11094H10.9305H9.42248H9.35277L9.32865 6.17635L6.12944 14.8548L2.66045 6.17383L2.63532 6.11094H2.56759H1H0.851277L0.907391 6.24867L5.30482 17.0421L3.52877 21.8564L3.47911 21.991H3.62259H5.10081H5.17032L5.19454 21.9258L11.0242 6.24579Z" fill="#EEEE69" stroke="#EEEE69" stroke-width="0.2"/>
</svg>
